<?xml version="1.0" encoding="UTF-8"?>
<svg id="_图层_2" data-name="图层 2" xmlns="http://www.w3.org/2000/svg" viewBox="0 0 372.82 362.48">
  <g id="_图层_1-2" data-name="图层 1">
    <g>
      <path d="M239.13,152c.06,.94-.33,1.62-1.02,2.23-2.46,2.17-5.16,4-7.86,5.84-3.2,2.18-6.33,4.45-9.54,6.61-2.87,1.93-5.62,4.04-8.56,5.87-2.6,1.62-5.06,3.49-7.6,5.21-2.5,1.69-5.01,3.36-7.53,5.02-.85,.56-1.5,.28-2.22-.44-1.4-1.41-1.59-3.32-2.31-5-2.36-5.48-4.44-11.09-7.15-16.43-1.91-3.77-3.42-7.74-5.15-11.6-1.42-3.18-2.94-6.32-4.35-9.5-1.05-2.37-1.97-4.78-2.97-7.17-1.03-2.47-2.19-4.9-2.89-7.5-.16-.59-.69-.98-1.36-1.03-.81-.06-1.25,.47-1.66,1.08-1.56,2.33-2.63,4.91-3.74,7.46-1.62,3.71-3.52,7.27-5.23,10.93-2.08,4.47-4.15,8.94-6.23,13.41-3.54,7.63-7.1,15.26-10.62,22.9-1.63,3.53-3.09,7.13-4.79,10.63-2.89,5.96-5.65,11.99-8.54,17.96-2.01,4.16-4.08,8.3-5.9,12.56-1.17,2.74-2.8,5.29-3.91,8.08-1.31,3.28-3.12,6.33-4.42,9.62-1.14,2.87-2.78,5.53-3.98,8.37-1.45,3.45-3.05,6.85-4.74,10.16-3.21,6.31-5.64,12.96-8.94,19.24-2.59,4.94-4.37,10.29-6.9,15.26-1.9,3.74-3.59,7.56-5.38,11.34-3.18,6.71-6.09,13.54-9.31,20.22-2.44,5.07-4.57,10.27-7.13,15.29-2,3.9-3.57,8.01-5.4,12-1.27,2.76-2.62,5.48-4,8.19-1.49,2.94-3.96,3.83-7.12,3.39-2.07-.29-4.17-.35-6.25-.56-13.34-1.33-26.72-.23-40.08-.6-.4-.01-.8,0-1.2,0-3.45,0-3.85-.64-2.38-3.76,2.44-5.18,4.89-10.36,7.3-15.56,2.56-5.51,5.16-11,7.6-16.57,3.32-7.58,6.74-15.11,10.32-22.58,2.26-4.71,4.52-9.43,6.7-14.18,2.2-4.82,4.57-9.56,6.66-14.43,1.51-3.52,3.28-6.94,4.9-10.41,1.81-3.87,3.58-7.77,5.42-11.62,2.15-4.5,4.25-9.02,6.4-13.52,2.28-4.76,4.27-9.66,6.69-14.36,.55-1.07,1.36-2.08,1.08-3.49-.14-.71,.87-.8,1.18-1.42,1.36-2.72,2.54-5.52,3.8-8.28,2.12-4.62,4.3-9.22,6.43-13.84,2.48-5.39,4.93-10.79,7.42-16.18,1.3-2.8,2.68-5.57,3.98-8.37,2.81-6.06,5.57-12.15,8.4-18.21,2.59-5.54,5.36-11.01,7.83-16.6,3.11-7.02,6.67-13.84,9.74-20.87,2.31-5.3,4.94-10.45,7.13-15.8,1.21-2.95,2.82-5.73,4.14-8.63,1.51-3.3,3.1-6.56,4.53-9.9,1.55-3.62,3.48-7.07,5.13-10.65,3.39-7.33,6.87-14.62,10.25-21.95,2.91-6.29,5.99-12.5,8.83-18.82,3.97-8.82,8.15-17.54,12.53-26.17,.72-1.42,1.56-2.78,2.38-4.15,.63-1.06,1.23-.89,1.93,.02,.84,1.1,1.29,2.4,1.72,3.64,1.36,3.98,3.11,7.78,4.84,11.61,3.38,7.5,6.73,15.01,10.17,22.48,2.35,5.11,4.85,10.15,7.22,15.25,2.56,5.51,5.02,11.07,7.59,16.57,2.26,4.82,4.64,9.59,6.91,14.41,1.89,4.01,3.65,8.07,5.54,12.08,1.49,3.16,3.04,6.29,4.45,9.48,1.92,4.32,4.09,8.51,5.99,12.84,2.58,5.88,5.7,11.53,8.53,17.3,1.72,3.49,3.59,6.89,4.94,10.56,.62,1.67,1.56,3.22,1.72,5.04Z"/>
      <path d="M330.15,361.94c-4.05,0-8.1-.07-12.14,.02-4.19,.1-8.37,.47-12.56,.51-4.44,.05-8.88-.1-13.3-.59-1.47-.16-2.2-1.27-2.82-2.43-1.45-2.74-2.13-5.79-3.39-8.62-1.07-2.41-2.14-4.83-3.18-7.26-1.76-4.12-3.62-8.22-5.71-12.18-2.08-3.94-3.58-8.12-5.5-12.13-2.1-4.4-4.22-8.79-6.14-13.27-2.03-4.76-4.41-9.35-6.59-14.03-1.47-3.16-2.59-6.49-4.16-9.59-1.85-3.66-3.41-7.44-5.13-11.15-2.79-6.01-5.51-12.05-8.29-18.07-1.8-3.88-3.77-7.69-5.44-11.63-1.22-2.88-2.75-5.64-3.46-8.72-.1-.43-.35-.83-.58-1.21-.71-1.18-1.54-1.36-2.58-.42-3.02,2.74-5.94,5.6-9.01,8.28-2.73,2.39-5.24,5.02-8.06,7.32-1.99,1.63-3.81,3.48-5.72,5.22-2.61,2.38-5.31,4.65-7.89,7.05-2.22,2.07-4.57,3.98-6.8,6.04-3.87,3.57-7.91,6.94-11.85,10.44-6.07,5.39-12.02,10.9-18.2,16.17-3.07,2.62-5.81,5.64-8.98,8.08-3.43,2.64-6.53,5.65-9.91,8.34-1.69,1.34-3.2,2.97-4.88,4.37-3.67,3.05-7.46,5.97-11.01,9.15-4.88,4.38-10.29,8.15-15.03,12.66-3.18,3.02-6.76,5.51-9.97,8.49-2.69,2.49-5.45,5.02-8.6,7.05-2.02,1.31-3.69,3.16-5.53,4.76-1.53,1.32-3.11,2.6-4.52,4.06-.26,.27-.68,.41-1.05,.56-1.17,.45-2.49,.73-3.34-.31-.8-.98-.52-2.23,.12-3.37,3.04-5.44,5.78-11.03,8.29-16.74,2.46-5.6,5.25-11.06,7.81-16.62,2.54-5.51,4.96-11.09,7.48-16.61,1.3-2.86,2.76-5.64,4.07-8.49,2.37-5.15,4.65-10.33,7.02-15.48,2.14-4.64,4.46-9.21,6.49-13.9,1.24-2.88,2.48-5.76,3.88-8.56,3-6.01,5.76-12.15,9.46-17.79,.72-1.09,1.77-1.95,2.9-2.49,3.33-1.59,6.39-3.58,9.45-5.64,2.93-1.98,5.88-3.98,8.96-5.76,2.36-1.37,4.48-3.13,6.77-4.64,2.79-1.84,5.54-3.73,8.43-5.42,1.66-.98,3.29-2.05,4.78-3.27,2.04-1.67,4.36-2.94,6.47-4.51,3.18-2.36,6.78-4.09,9.9-6.58,1.93-1.54,4.16-2.69,6.22-4.06,3.88-2.6,7.79-5.16,11.6-7.87,3.59-2.56,7.44-4.72,11-7.3,2.78-2.01,5.6-3.96,8.38-5.95,4.15-2.97,8.36-5.83,12.67-8.57,2.62-1.67,5.24-3.4,7.79-5.21,2.46-1.74,5.18-3.18,7.71-4.82,2.22-1.44,4.61-2.66,6.64-4.48,1.82-1.64,4.08-2.8,6.16-4.15,3.25-2.11,6.47-4.26,9.48-6.71,1.23-1,2.63-1.81,4-2.6,3.53-2.03,6.85-4.37,10.04-6.87,1.58-1.24,3.39-2.08,5.02-3.22,2.61-1.82,5.29-3.56,7.94-5.33,3.67-2.45,7.31-4.96,11.03-7.35,3.81-2.44,7.27-5.36,11.06-7.83,1.29-.84,2.44-1.89,3.72-2.75,2.62-1.76,5.25-3.49,7.92-5.16,2.49-1.56,4.96-3.14,7.28-4.94,1.06-.82,1.19-2.73,.23-3.96-.91-1.18-1.76-2.42-2.91-3.41-.88-.76-1.3-1.76-1.21-2.94,.12-1.61,.74-2.23,2.38-2.23,8.39-.02,16.79,0,25.18-.03,1.52,0,2.26,.7,2.35,2.1,.13,1.99,.08,3.96-.47,5.94-.65,2.34-.94,4.78-1.45,7.17-.69,3.29-1.74,6.43-2.91,9.55-.42,1.12-.88,2.23-1.38,3.32-.89,1.96-2.24,2.18-3.67,.59-1.58-1.75-2.65-3.86-4.07-5.72-1.63-2.14-3.25-2.27-5.03-.29-3.39,3.79-6.69,7.66-10.12,11.41-3.45,3.79-6.93,7.57-10.32,11.41-3.93,4.46-8.17,8.6-12.17,12.98-3.35,3.67-7.12,6.97-10.55,10.58-5.04,5.31-10.29,10.39-15.69,15.33-1.68,1.54-3.02,3.45-4.74,4.98-4.74,4.24-9.03,8.99-14.26,12.67-1.39,.98-2.66,2.08-3.99,3.12-1.51,1.17-1.78,2.55-.72,4.08,2.7,3.92,4.54,8.31,6.74,12.5,1.01,1.92,1.91,3.94,2.53,6.06,.56,1.92,1.77,3.57,2.66,5.34,1.37,2.73,2.34,5.6,3.69,8.33,1.95,3.92,3.72,7.94,5.43,11.97,2.99,7.07,6.43,13.92,9.45,20.97,2.51,5.86,5.45,11.53,7.97,17.39,1.59,3.71,3.37,7.31,5.08,10.96,1.72,3.7,3.25,7.48,4.93,11.2,1.16,2.58,2.46,5.09,3.6,7.68,.6,1.36,1.11,2.76,1.74,4.11,2.66,5.7,5.46,11.34,7.83,17.16,2.42,5.92,5.69,11.42,8.09,17.35,1.67,4.15,3.7,8.16,5.61,12.21,1.17,2.48,.19,4.16-2.48,4.16-4.65,0-9.29,0-13.94,0Z"/>
    </g>
  </g>
</svg>