<?xml version="1.0" encoding="UTF-8"?>
<svg id="_图层_2" data-name="图层 2" xmlns="http://www.w3.org/2000/svg" viewBox="0 0 504.03 139.64">
  <defs>
    <style>
      .cls-1 {
        letter-spacing: -.02em;
      }

      .cls-2 {
        letter-spacing: 0em;
      }

      .cls-3 {
        font-size: 111.94px;
      }

      .cls-3, .cls-4 {
        font-family: Mooli-Regular, Mooli;
      }

      .cls-5 {
        letter-spacing: 0em;
      }

      .cls-6 {
        letter-spacing: 0em;
      }

      .cls-7 {
        letter-spacing: 0em;
      }

      .cls-8 {
        letter-spacing: -.01em;
      }

      .cls-9 {
        letter-spacing: 0em;
      }

      .cls-4 {
        font-size: 18px;
      }
    </style>
  </defs>
  <g id="_图层_1-2" data-name="图层 1">
    <g>
      <path d="M59.78,46.43c.02,.24-.08,.41-.25,.56-.61,.54-1.29,1-1.96,1.46-.8,.54-1.58,1.11-2.38,1.65-.72,.48-1.4,1.01-2.14,1.47-.65,.41-1.26,.87-1.9,1.3-.62,.42-1.25,.84-1.88,1.25-.21,.14-.38,.07-.56-.11-.35-.35-.4-.83-.58-1.25-.59-1.37-1.11-2.77-1.79-4.11-.48-.94-.86-1.93-1.29-2.9-.36-.79-.74-1.58-1.09-2.38-.26-.59-.49-1.2-.74-1.79-.26-.62-.55-1.22-.72-1.88-.04-.15-.17-.25-.34-.26-.2-.01-.31,.12-.41,.27-.39,.58-.66,1.23-.93,1.86-.4,.93-.88,1.82-1.31,2.73-.52,1.12-1.04,2.24-1.56,3.35-.89,1.91-1.77,3.81-2.65,5.72-.41,.88-.77,1.78-1.2,2.66-.72,1.49-1.41,3-2.13,4.49-.5,1.04-1.02,2.07-1.47,3.14-.29,.68-.7,1.32-.98,2.02-.33,.82-.78,1.58-1.11,2.41-.28,.72-.7,1.38-.99,2.09-.36,.86-.76,1.71-1.19,2.54-.8,1.58-1.41,3.24-2.23,4.81-.65,1.23-1.09,2.57-1.72,3.82-.48,.93-.9,1.89-1.35,2.84-.79,1.68-1.52,3.38-2.33,5.06-.61,1.27-1.14,2.57-1.78,3.82-.5,.97-.89,2-1.35,3-.32,.69-.66,1.37-1,2.05-.37,.74-.99,.96-1.78,.85-.52-.07-1.04-.09-1.56-.14-3.34-.33-6.68-.06-10.02-.15-.1,0-.2,0-.3,0-.86,0-.96-.16-.59-.94,.61-1.3,1.22-2.59,1.83-3.89,.64-1.38,1.29-2.75,1.9-4.14,.83-1.9,1.69-3.78,2.58-5.64,.56-1.18,1.13-2.36,1.67-3.55,.55-1.2,1.14-2.39,1.67-3.61,.38-.88,.82-1.73,1.23-2.6,.45-.97,.89-1.94,1.36-2.91,.54-1.12,1.06-2.25,1.6-3.38,.57-1.19,1.07-2.41,1.67-3.59,.14-.27,.34-.52,.27-.87-.04-.18,.22-.2,.3-.35,.34-.68,.63-1.38,.95-2.07,.53-1.16,1.07-2.31,1.61-3.46,.62-1.35,1.23-2.7,1.85-4.05,.32-.7,.67-1.39,1-2.09,.7-1.52,1.39-3.04,2.1-4.55,.65-1.39,1.34-2.75,1.96-4.15,.78-1.76,1.67-3.46,2.43-5.22,.58-1.33,1.24-2.61,1.78-3.95,.3-.74,.7-1.43,1.04-2.16,.38-.83,.77-1.64,1.13-2.48,.39-.9,.87-1.77,1.28-2.66,.85-1.83,1.72-3.65,2.56-5.49,.73-1.57,1.5-3.13,2.21-4.7,.99-2.21,2.04-4.39,3.13-6.54,.18-.35,.39-.69,.6-1.04,.16-.27,.31-.22,.48,0,.21,.28,.32,.6,.43,.91,.34,.99,.78,1.95,1.21,2.9,.84,1.87,1.68,3.75,2.54,5.62,.59,1.28,1.21,2.54,1.81,3.81,.64,1.38,1.26,2.77,1.9,4.14,.56,1.21,1.16,2.4,1.73,3.6,.47,1,.91,2.02,1.38,3.02,.37,.79,.76,1.57,1.11,2.37,.48,1.08,1.02,2.13,1.5,3.21,.65,1.47,1.42,2.88,2.13,4.32,.43,.87,.9,1.72,1.24,2.64,.15,.42,.39,.8,.43,1.26Z"/>
      <path d="M82.54,98.92c-1.01,0-2.02-.02-3.03,0-1.05,.02-2.09,.12-3.14,.13-1.11,.01-2.22-.03-3.32-.15-.37-.04-.55-.32-.71-.61-.36-.69-.53-1.45-.85-2.16-.27-.6-.54-1.21-.79-1.81-.44-1.03-.91-2.05-1.43-3.04-.52-.99-.9-2.03-1.37-3.03-.52-1.1-1.06-2.2-1.53-3.32-.51-1.19-1.1-2.34-1.65-3.51-.37-.79-.65-1.62-1.04-2.4-.46-.91-.85-1.86-1.28-2.79-.7-1.5-1.38-3.01-2.07-4.52-.45-.97-.94-1.92-1.36-2.91-.3-.72-.69-1.41-.86-2.18-.02-.11-.09-.21-.15-.3-.18-.29-.39-.34-.64-.1-.76,.69-1.49,1.4-2.25,2.07-.68,.6-1.31,1.25-2.02,1.83-.5,.41-.95,.87-1.43,1.31-.65,.59-1.33,1.16-1.97,1.76-.56,.52-1.14,1-1.7,1.51-.97,.89-1.98,1.74-2.96,2.61-1.52,1.35-3.01,2.73-4.55,4.04-.77,.66-1.45,1.41-2.25,2.02-.86,.66-1.63,1.41-2.48,2.08-.42,.34-.8,.74-1.22,1.09-.92,.76-1.87,1.49-2.75,2.29-1.22,1.1-2.57,2.04-3.76,3.16-.79,.76-1.69,1.38-2.49,2.12-.67,.62-1.36,1.25-2.15,1.76-.51,.33-.92,.79-1.38,1.19-.38,.33-.78,.65-1.13,1.02-.07,.07-.17,.1-.26,.14-.29,.11-.62,.18-.83-.08-.2-.24-.13-.56,.03-.84,.76-1.36,1.44-2.76,2.07-4.18,.62-1.4,1.31-2.76,1.95-4.15,.64-1.38,1.24-2.77,1.87-4.15,.33-.71,.69-1.41,1.02-2.12,.59-1.29,1.16-2.58,1.75-3.87,.54-1.16,1.12-2.3,1.62-3.48,.31-.72,.62-1.44,.97-2.14,.75-1.5,1.44-3.04,2.37-4.45,.18-.27,.44-.49,.72-.62,.83-.4,1.6-.89,2.36-1.41,.73-.5,1.47-.99,2.24-1.44,.59-.34,1.12-.78,1.69-1.16,.7-.46,1.39-.93,2.11-1.36,.42-.24,.82-.51,1.19-.82,.51-.42,1.09-.74,1.62-1.13,.8-.59,1.69-1.02,2.47-1.65,.48-.38,1.04-.67,1.55-1.02,.97-.65,1.95-1.29,2.9-1.97,.9-.64,1.86-1.18,2.75-1.82,.69-.5,1.4-.99,2.1-1.49,1.04-.74,2.09-1.46,3.17-2.14,.66-.42,1.31-.85,1.95-1.3,.61-.44,1.3-.8,1.93-1.21,.55-.36,1.15-.66,1.66-1.12,.46-.41,1.02-.7,1.54-1.04,.81-.53,1.62-1.06,2.37-1.68,.31-.25,.66-.45,1-.65,.88-.51,1.71-1.09,2.51-1.72,.39-.31,.85-.52,1.25-.81,.65-.46,1.32-.89,1.98-1.33,.92-.61,1.83-1.24,2.76-1.84,.95-.61,1.82-1.34,2.76-1.96,.32-.21,.61-.47,.93-.69,.65-.44,1.31-.87,1.98-1.29,.62-.39,1.24-.79,1.82-1.23,.27-.21,.3-.68,.06-.99-.23-.29-.44-.6-.73-.85-.22-.19-.33-.44-.3-.73,.03-.4,.19-.56,.59-.56,2.1,0,4.2,0,6.29,0,.38,0,.56,.18,.59,.53,.03,.5,.02,.99-.12,1.48-.16,.59-.24,1.19-.36,1.79-.17,.82-.44,1.61-.73,2.39-.1,.28-.22,.56-.34,.83-.22,.49-.56,.54-.92,.15-.39-.44-.66-.97-1.02-1.43-.41-.53-.81-.57-1.26-.07-.85,.95-1.67,1.91-2.53,2.85-.86,.95-1.73,1.89-2.58,2.85-.98,1.11-2.04,2.15-3.04,3.24-.84,.92-1.78,1.74-2.64,2.64-1.26,1.33-2.57,2.6-3.92,3.83-.42,.38-.76,.86-1.18,1.24-1.18,1.06-2.26,2.25-3.56,3.17-.35,.24-.67,.52-1,.78-.38,.29-.45,.64-.18,1.02,.68,.98,1.13,2.08,1.68,3.12,.25,.48,.48,.99,.63,1.52,.14,.48,.44,.89,.66,1.34,.34,.68,.58,1.4,.92,2.08,.49,.98,.93,1.98,1.36,2.99,.75,1.77,1.61,3.48,2.36,5.24,.63,1.46,1.36,2.88,1.99,4.35,.4,.93,.84,1.83,1.27,2.74,.43,.92,.81,1.87,1.23,2.8,.29,.64,.61,1.27,.9,1.92,.15,.34,.28,.69,.44,1.03,.67,1.42,1.36,2.84,1.96,4.29,.6,1.48,1.42,2.86,2.02,4.34,.42,1.04,.93,2.04,1.4,3.05,.29,.62,.05,1.04-.62,1.04-1.16,0-2.32,0-3.48,0Z"/>
    </g>
    <text class="cls-3" transform="translate(101.99 96.72)"><tspan x="0" y="0">U</tspan><tspan class="cls-9" x="82.44" y="0">R</tspan><tspan x="156.05" y="0">O</tspan><tspan class="cls-6" x="248.96" y="0">R</tspan><tspan x="322.28" y="0">A</tspan></text>
    <text class="cls-4" transform="translate(29.89 134.01)"><tspan x="0" y="0">Unleash </tspan><tspan class="cls-5" x="74.98" y="0">y</tspan><tspan x="85.61" y="0">our c</tspan><tspan class="cls-5" x="128.54" y="0">r</tspan><tspan x="135.63" y="0">eativi</tspan><tspan class="cls-7" x="183.85" y="0">t</tspan><tspan class="cls-1" x="191.28" y="0">y</tspan><tspan x="201.51" y="0">, s</tspan><tspan class="cls-5" x="219.21" y="0">o</tspan><tspan class="cls-8" x="230.23" y="0">f</tspan><tspan class="cls-7" x="236.34" y="0">t</tspan><tspan class="cls-2" x="243.78" y="0">w</tspan><tspan x="258.88" y="0">a</tspan><tspan class="cls-5" x="269.73" y="0">r</tspan><tspan x="276.81" y="0">e shapes the futu</tspan><tspan class="cls-5" x="422.93" y="0">r</tspan><tspan x="430.01" y="0">e.</tspan></text>
  </g>
</svg>